<svg width="317" height="74" viewBox="0 0 317 74" fill="none" xmlns="http://www.w3.org/2000/svg">
<path d="M114.574 48.4417C112.856 50.1332 110.799 50.9785 108.403 50.9785C105.961 50.9785 103.892 50.1332 102.195 48.4417C100.5 46.7489 99.6529 44.685 99.6529 42.2484C99.6529 39.858 100.5 37.8056 102.195 36.0906C103.892 34.3765 105.961 33.5188 108.403 33.5188C110.799 33.5188 112.856 34.3765 114.574 36.0906C116.293 37.8056 117.153 39.858 117.153 42.2484C117.153 44.685 116.293 46.7489 114.574 48.4417ZM119.865 30.8127C116.699 27.6546 112.879 26.0744 108.403 26.0744C103.879 26.0744 100.036 27.6546 96.8708 30.8127C93.7055 33.9712 92.1235 37.7825 92.1235 42.2484C92.1235 46.7618 93.7055 50.5958 96.8708 53.7543C100.036 56.9123 103.879 58.4907 108.403 58.4907C112.879 58.4907 116.699 56.9123 119.865 53.7543C123.03 50.5958 124.613 46.7618 124.613 42.2484C124.613 37.7825 123.03 33.9712 119.865 30.8127Z" fill="#31348D"/>
<path d="M132.542 26.075C128.73 26.075 125.399 27.1939 122.57 29.4318C122.255 29.6806 122.233 30.1454 122.496 30.4478C123.866 32.0284 124.903 33.7505 125.619 35.6016C125.776 36.0069 126.299 36.1014 126.616 35.8043C127.184 35.2725 127.985 34.6667 129.046 34.209C129.376 34.0671 130.71 33.519 132.542 33.519C134.942 33.519 137.003 34.378 138.725 36.0961C140.421 37.8137 141.282 39.8697 141.282 42.2384C141.282 44.6855 140.421 46.7416 138.725 48.4335C137.003 50.1254 134.942 50.984 132.542 50.984C130.721 50.984 129.393 50.4456 129.059 50.3032C127.996 49.8495 127.191 49.2477 126.619 48.7182C126.301 48.4237 125.778 48.5213 125.624 48.9257C124.908 50.8026 123.872 52.5464 122.515 54.1345C122.255 54.4374 122.279 54.8991 122.592 55.1465C125.422 57.3835 128.754 58.4802 132.542 58.4802C137.03 58.4802 140.839 56.9187 143.995 53.7433C147.178 50.5937 148.743 46.7673 148.743 42.2384C148.743 37.7875 147.178 33.9616 143.995 30.8124C140.839 27.6627 137.03 26.075 132.542 26.075Z" fill="#31348D"/>
<path d="M197.282 27.1817C196.347 26.0552 195.066 26.0747 193.743 26.0747H191.641H191.074C190.767 26.0747 190.517 26.3226 190.517 26.6291C190.517 26.8721 190.517 27.1657 190.518 27.4925C190.536 32.2676 190.518 37.0422 190.518 41.8172C190.518 43.7233 190.093 45.3026 189.158 46.9262C187.771 49.3321 184.809 50.9783 182.039 50.9783C180.254 50.9783 178.638 50.6577 177.104 49.6935C175.76 48.8491 174.707 47.6504 173.968 46.2419C173.009 44.4147 173.019 42.6226 173.019 40.5927V32.5243C173.019 30.5601 173.469 27.9595 171.606 26.6637C170.878 26.1568 169.839 26.1439 167.908 26.0747C166.891 26.0388 166.052 26.0849 165.489 26.1319V28.0292V31.6804V39.8627C165.489 42.3312 165.47 44.754 166.224 47.1479C167.736 51.95 171.552 55.8695 176.298 57.5734C180.967 59.2502 186.371 58.6298 190.518 55.9201C190.518 58.4529 190.091 60.8676 188.483 62.7884C187.655 63.7774 186.658 64.5402 185.568 65.0684C182.675 66.468 179.204 66.0516 176.816 64.4626C176.492 64.2475 176.219 64.0306 175.996 63.8355C175.792 63.6576 175.497 63.6496 175.28 63.8115C173.564 65.0928 171.847 66.3749 170.13 67.6566C169.857 67.8606 169.817 68.2544 170.05 68.5027C170.261 68.7271 170.501 68.9693 170.77 69.2207C170.911 69.352 171.666 70.0461 172.64 70.7157C173.948 71.6138 175.391 72.3087 176.911 72.7638C181.839 74.2388 187.449 73.3589 191.493 70.1982C195.501 67.0649 197.979 62.3955 197.979 57.2736V56.4625V42.4288C197.979 38.1052 197.998 33.7812 197.979 29.4576C197.976 28.6296 197.833 27.846 197.282 27.1817Z" fill="#31348D"/>
<path d="M248.242 48.4417C246.638 50.0427 244.635 50.8898 242.24 50.9785C239.708 50.9785 237.58 50.1447 235.863 48.4745C234.189 46.7618 233.354 44.6849 233.354 42.2484C233.354 39.858 234.189 37.8056 235.863 36.0906C237.58 34.3765 239.662 33.5188 242.105 33.5188C244.5 33.5188 246.558 34.3765 248.275 36.0906C249.949 37.8056 250.807 39.9268 250.854 42.452C250.719 44.8437 249.847 46.8403 248.242 48.4417ZM253.567 30.8126C250.492 27.7446 246.647 26.1662 242.036 26.0744C237.468 26.2106 233.66 27.8005 230.608 30.8459C227.555 33.8909 225.96 37.6925 225.825 42.2484C225.924 45.6012 226.794 48.5442 228.428 51.0831C226.257 51.1288 224.177 51.0933 223.23 50.5066C222.476 50.0396 221.845 49.4125 221.845 49.4125C220.941 48.5561 220.353 47.5175 220.082 46.2988C220.037 45.8934 220.013 45.465 220.013 45.014V41.2914V38.7874V25.0491C220.002 24.3178 219.99 23.5856 219.978 22.8543C219.953 21.3349 218.691 20.1277 217.169 20.1663C215.593 20.2071 214.017 20.2474 212.441 20.2878C212.456 28.53 212.47 36.7718 212.486 45.014C212.486 48.8036 213.818 52.0513 216.488 54.7579C217.133 55.4014 218.139 56.2777 219.533 57.0268C222.479 58.6104 225.367 58.5976 227.213 58.5892C231.564 58.5683 236.393 58.5657 241.857 58.4854C241.94 58.4863 242.022 58.4907 242.105 58.4907C245.315 58.4907 248.23 57.6343 250.854 55.9198C251.126 57.6343 251.962 58.4907 253.363 58.4907H258.315V42.2484C258.315 41.8431 258.29 41.4377 258.247 41.031C257.885 36.9705 256.324 33.564 253.567 30.8126Z" fill="#31348D"/>
<path d="M275.879 48.4336C274.184 50.125 272.07 50.9841 269.54 50.9841C267.14 50.8803 265.131 50.0474 263.54 48.4336C261.923 46.8459 261.087 44.8413 260.983 42.4469C260.983 39.9222 261.844 37.8138 263.513 36.0962C265.235 34.4305 267.349 33.571 269.879 33.5191C272.279 33.6495 274.288 34.5342 275.879 36.1219C277.496 37.7358 278.357 39.7142 278.488 42.1086C278.462 44.6333 277.575 46.7417 275.879 48.4336ZM285.61 39.115C285.576 38.8857 285.532 38.6729 285.532 38.6729C285.48 38.4906 285.453 38.3345 285.401 38.1522C285.193 37.3193 284.931 36.5388 284.592 35.784C284.384 35.2633 284.148 34.7688 283.862 34.3001C283.835 34.3001 283.835 34.2739 283.835 34.2482C283.575 33.8317 283.314 33.4153 283.027 32.9984C282.714 32.582 282.401 32.1656 282.062 31.7749C281.801 31.4369 281.514 31.1247 281.201 30.8125C281.123 30.7344 281.044 30.6559 280.966 30.604C280.575 30.2399 280.184 29.875 279.766 29.537C279.375 29.2248 278.958 28.9121 278.54 28.6261C278.488 28.5999 278.436 28.5476 278.384 28.5476C277.992 28.2873 277.601 28.0531 277.209 27.8447C277.131 27.7928 277.053 27.7666 276.975 27.7409C276.505 27.4806 276.036 27.2721 275.54 27.1165C275.201 26.9599 274.861 26.8561 274.522 26.7515C274.209 26.6477 273.87 26.5696 273.557 26.5177C273.349 26.4393 273.14 26.3874 272.905 26.3612C271.888 26.1789 270.844 26.0751 269.748 26.0751C268.522 26.0751 267.349 26.1789 266.227 26.4393C264.349 26.8042 262.601 27.5324 260.983 28.5738L261.023 22.9282C261.034 21.3675 259.769 20.0961 258.204 20.0961H253.423C253.438 22.6616 253.454 25.2272 253.47 27.7928C254.044 28.2354 254.617 28.7299 255.14 29.2505C258.27 32.374 260.044 36.2523 260.461 40.8331C260.514 41.2757 260.539 41.7706 260.539 42.2385V55.6434C260.566 55.6691 260.618 55.6952 260.67 55.7214C260.696 55.7737 260.748 55.7995 260.8 55.8518C260.826 55.8518 260.878 55.8775 260.931 55.9294C261.609 56.3201 262.288 56.6847 262.965 56.9969C263.018 57.0492 263.07 57.1011 263.174 57.1273C263.357 57.231 263.54 57.3091 263.774 57.4133H263.905C264.009 57.4652 264.061 57.4914 264.114 57.5437H264.322C264.401 57.5956 264.505 57.6218 264.583 57.6736C264.635 57.6736 264.687 57.6998 264.714 57.7517C264.948 57.8036 265.209 57.8559 265.47 57.9597C265.6 57.9597 265.731 57.9597 265.809 58.012C266.044 58.0644 266.253 58.1162 266.435 58.1424C266.514 58.1424 266.592 58.1681 266.618 58.22H266.827C266.957 58.2724 267.088 58.2981 267.244 58.2981C267.322 58.3242 267.401 58.3504 267.426 58.3504H267.844C267.948 58.4027 268 58.4285 268.053 58.4285C268.418 58.4803 268.783 58.4803 269.148 58.4803H269.748C274.236 58.4803 278.045 56.9188 281.201 53.7435C284.384 50.5938 285.949 46.7674 285.949 42.2385C285.792 40.6446 285.661 39.4685 285.61 39.115Z" fill="#31348D"/>
<path d="M293.645 33.5191H312.428C313.471 33.5191 314.359 33.155 315.089 32.4259C315.793 31.7234 316.158 30.8382 316.158 29.7969V26.0751H293.775C291.01 26.0751 288.662 27.038 286.731 28.9383C285.896 29.745 285.245 30.6298 284.775 31.6192C284.775 31.6449 284.801 31.6449 284.801 31.6711C284.906 31.8015 284.984 31.9576 285.088 32.0875H285.114L286.053 33.6233V33.6756C286.288 34.0916 286.47 34.5081 286.653 34.9511C286.992 35.7316 287.305 36.6164 287.566 37.6058L287.723 38.2564L287.775 38.5691C287.958 39.5576 288.088 40.5989 288.166 41.7178V42.2385C288.166 42.9414 288.14 43.6444 288.062 44.3468C289.679 45.4924 291.532 46.0387 293.645 46.0387H306.193C306.871 46.0387 307.471 46.2991 307.967 46.794C308.41 47.2362 308.645 47.8091 308.697 48.5374C308.645 49.2664 308.384 49.8647 307.889 50.3073C307.393 50.7504 306.793 50.9841 306.115 50.9841H287.41C286.836 50.9841 286.314 51.0883 285.819 51.3486C285.427 51.5047 285.088 51.7651 284.749 52.1034C284.175 52.7021 283.809 53.4308 283.731 54.2379C283.679 54.3936 283.679 54.5759 283.679 54.7586V58.4803H306.193C308.958 58.4803 311.306 57.5171 313.237 55.5915C315.193 53.6392 316.158 51.2967 316.158 48.5374C316.158 47.6788 316.054 46.8459 315.82 46.0387C315.246 43.8262 314.071 42.0301 312.297 40.6246C310.524 39.2197 308.489 38.5168 306.193 38.5168H293.723C293.044 38.5168 292.445 38.3083 291.949 37.84C291.453 37.3974 291.192 36.8248 291.192 36.0962C291.192 35.3671 291.427 34.7684 291.871 34.2739C292.366 33.7794 292.967 33.5191 293.645 33.5191Z" fill="#31348D"/>
<path d="M90.0385 36.028C88.1974 36.0422 86.3447 36.0422 84.5152 36.0422V33.7577C84.5152 33.3209 84.5383 32.8987 84.592 32.4849C84.8534 31.2583 85.4526 30.2232 86.3669 29.365C86.7665 28.9353 87.2199 28.5747 87.7195 28.2918C88.8566 27.6248 89.4713 26.3289 89.4713 25.01V20.0957C88.188 20.234 86.9897 20.5099 85.8678 20.9237C84.0542 21.5986 82.4327 22.6258 80.996 24.0285C78.3295 26.7351 77 29.9859 77 33.7577V58.452H80.7347C81.7717 58.452 82.6634 58.0915 83.3932 57.3628C84.1462 56.6351 84.5152 55.776 84.5152 54.7338V43.4865H89.262C89.6367 43.4865 89.9318 43.1774 89.922 42.804C89.9172 42.616 89.9171 42.4275 89.9171 42.2368C89.9171 40.3471 90.1647 38.5474 90.679 36.8617C90.807 36.4426 90.4777 36.0244 90.0385 36.028Z" fill="#31348D"/>
<path d="M161.504 50.1603C161.004 49.8765 160.551 49.5164 160.152 49.0871C159.237 48.2289 158.638 47.1938 158.376 45.9667C158.322 45.5525 158.3 45.1312 158.3 44.6943V34.9651V33.4612H162.598C162.889 33.4612 163.124 33.2257 163.124 32.9361V26.5038C163.124 26.2142 162.889 25.9791 162.598 25.9791H158.3V23.7182C158.3 22.6756 157.931 21.817 157.178 21.0888C156.448 20.3606 155.556 20 154.519 20H150.785V44.6943C150.785 48.4662 152.114 51.7169 154.78 54.4231C156.217 55.8259 157.838 56.8534 159.652 57.528C160.774 57.9422 161.973 58.218 163.256 58.356V53.4417C163.256 52.1232 162.641 50.8273 161.504 50.1603Z" fill="#31348D"/>
<path fill-rule="evenodd" clip-rule="evenodd" d="M43.1929 30.2206C40.2183 27.2528 36.8788 25.1848 33.165 24.0149V18.6345H35.4995C36.3085 18.6345 36.9695 17.9746 36.9695 17.1679V15.5163C36.9695 14.7096 36.3085 14.0497 35.4995 14.0497H33.165H30.1002V18.6345V23.2685C30.0904 23.2671 30.081 23.2649 30.0708 23.2631V29.1034C38.7346 31.1958 45.178 38.9857 45.178 48.2794C45.178 59.1874 36.3214 68.0239 25.3987 68.0239C14.4653 68.0239 5.60869 59.1874 5.60869 48.2794C5.60869 38.9857 12.0424 31.1958 20.7159 29.1034V27.7983H20.7172V17.9032V13.3179H17.6524H15.3174C14.5089 13.3179 13.8475 13.9779 13.8475 14.7846V16.4365C13.8475 17.2433 14.5089 17.9032 15.3174 17.9032H17.6524V23.9537L17.652 23.9541C13.8444 25.1116 10.424 27.204 7.39025 30.2206C2.46342 35.1362 0 41.078 0 48.0253C0 55.0639 2.46342 61.0359 7.39025 65.9519C12.3175 70.8676 18.3031 73.3258 25.3373 73.3258C32.3111 73.3258 38.2558 70.8676 43.1929 65.9519C48.1202 61.0359 50.5836 55.0639 50.5836 48.0253C50.5836 41.078 48.1202 35.1362 43.1929 30.2206Z" fill="#31348D"/>
<path fill-rule="evenodd" clip-rule="evenodd" d="M26.3764 15.1812C28.1535 15.1812 29.5946 13.7438 29.5946 11.9703C29.5946 10.1972 28.1535 8.75989 26.3764 8.75989C24.5993 8.75989 23.1582 10.1972 23.1582 11.9703C23.1582 13.7438 24.5993 15.1812 26.3764 15.1812Z" fill="#31348D"/>
<path fill-rule="evenodd" clip-rule="evenodd" d="M27.16 5.05884C28.5597 5.05884 29.695 3.92617 29.695 2.52918C29.695 1.1322 28.5597 -2.52724e-05 27.16 -2.52724e-05C25.7598 -2.52724e-05 24.625 1.1322 24.625 2.52918C24.625 3.92617 25.7598 5.05884 27.16 5.05884Z" fill="#31348D"/>
<path fill-rule="evenodd" clip-rule="evenodd" d="M25.6498 19.6024C25.6498 18.6706 24.8928 17.9149 23.9585 17.9149C23.0246 17.9149 22.2676 18.6706 22.2676 19.6024C22.2676 20.5342 23.0246 21.2894 23.9585 21.2894C24.8928 21.2894 25.6498 20.5342 25.6498 19.6024Z" fill="#31348D"/>
<path fill-rule="evenodd" clip-rule="evenodd" d="M21.5705 6.59891C22.0928 6.98297 22.8284 6.87209 23.2134 6.351C23.5983 5.8299 23.4872 5.09593 22.9649 4.71187C22.4426 4.32781 21.707 4.43868 21.322 4.95978C20.9371 5.48087 21.0482 6.21485 21.5705 6.59891Z" fill="#31348D"/>
<path fill-rule="evenodd" clip-rule="evenodd" d="M19.3638 31.5541L18.7126 32.7701L12.8119 37.0449L11.3717 37.3012C13.4173 34.6988 16.1808 32.6845 19.3638 31.5541ZM25.077 36.1136V40.9986L21.885 43.3122L18.6917 45.6259L14.0365 44.1172L13.6831 40.654L13.3315 37.1997L18.702 33.3076L21.885 34.7077L25.077 36.1136ZM29.2388 53.775L32.1147 57.726L30.3603 60.7351L28.6125 63.7326H21.9708L20.2235 60.7351L18.4686 57.726L21.3458 53.775H29.2388ZM25.5081 36.1136L28.6996 34.7077L31.88 33.3076L37.2518 37.2143L36.9002 40.654L36.5473 44.1172L31.8916 45.6259L28.6996 43.3122L25.5081 40.9986V36.1136ZM39.2116 37.3012L37.7363 37.0373L31.8756 32.7759L31.2195 31.5541C34.4039 32.6845 37.166 34.6988 39.2116 37.3012ZM39.2783 56.0062L35.8739 56.7388L32.4632 57.4741L29.5864 53.5231L30.8061 49.7787L32.0245 46.0339L36.6802 44.5252L39.0067 47.12L41.3354 49.7166L39.2783 56.0062ZM42.9676 48.3551C42.9294 52.0157 41.7755 55.4097 39.8277 58.2121L39.5841 56.4528L41.8555 49.5091L42.9676 48.3551ZM25.2921 65.8104C23.4288 65.8104 21.6312 65.5217 19.9443 64.9881L21.6517 64.1628H28.9334L30.6408 64.9881C28.9526 65.5217 27.1568 65.8104 25.2921 65.8104ZM14.7099 56.7388L11.3055 56.0049L9.24613 49.7198L11.5771 47.12L13.9031 44.5252L18.5588 46.0339L19.779 49.7787L20.9987 53.5231L18.1219 57.4741L14.7099 56.7388ZM10.7574 58.2121C8.80919 55.4097 7.65393 52.0157 7.61704 48.3551L8.72207 49.5029L10.9997 56.4572L10.7574 58.2121ZM6.78271 48.1738C6.78271 58.3731 15.07 66.6401 25.2921 66.6401C35.5147 66.6401 43.8006 58.3731 43.8006 48.1738C43.8006 37.9749 35.5147 29.706 25.2921 29.706C15.07 29.706 6.78271 37.9749 6.78271 48.1738Z" fill="#31348D"/>
</svg>
