<svg width="51" height="74" viewBox="0 0 51 74" fill="none" xmlns="http://www.w3.org/2000/svg">
<path fill-rule="evenodd" clip-rule="evenodd" d="M43.1929 30.2205C40.2183 27.2526 36.8788 25.1847 33.165 24.0147V18.6343H35.4995C36.3085 18.6343 36.9695 17.9744 36.9695 17.1677V15.5162C36.9695 14.7095 36.3085 14.0496 35.4995 14.0496H33.165H30.1002V18.6343V23.2683C30.0904 23.267 30.081 23.2648 30.0708 23.263V29.1033C38.7346 31.1957 45.178 38.9855 45.178 48.2793C45.178 59.1873 36.3214 68.0238 25.3987 68.0238C14.4653 68.0238 5.60869 59.1873 5.60869 48.2793C5.60869 38.9855 12.0424 31.1957 20.7159 29.1033V27.7981H20.7172V17.903V13.3178H17.6524H15.3174C14.5089 13.3178 13.8475 13.9777 13.8475 14.7844V16.4364C13.8475 17.2431 14.5089 17.903 15.3174 17.903H17.6524V23.9535L17.652 23.954C13.8444 25.1115 10.424 27.2039 7.39025 30.2205C2.46342 35.1361 0 41.0779 0 48.0252C0 55.0638 2.46342 61.0358 7.39025 65.9518C12.3175 70.8674 18.3031 73.3257 25.3373 73.3257C32.3111 73.3257 38.2558 70.8674 43.1929 65.9518C48.1202 61.0358 50.5836 55.0638 50.5836 48.0252C50.5836 41.0779 48.1202 35.1361 43.1929 30.2205Z" fill="#181A1D"/>
<path fill-rule="evenodd" clip-rule="evenodd" d="M26.3764 15.1812C28.1535 15.1812 29.5946 13.7438 29.5946 11.9703C29.5946 10.1972 28.1535 8.75989 26.3764 8.75989C24.5993 8.75989 23.1582 10.1972 23.1582 11.9703C23.1582 13.7438 24.5993 15.1812 26.3764 15.1812Z" fill="#181A1D"/>
<path fill-rule="evenodd" clip-rule="evenodd" d="M27.16 5.05884C28.5597 5.05884 29.695 3.92617 29.695 2.52918C29.695 1.1322 28.5597 -2.52724e-05 27.16 -2.52724e-05C25.7598 -2.52724e-05 24.625 1.1322 24.625 2.52918C24.625 3.92617 25.7598 5.05884 27.16 5.05884Z" fill="#181A1D"/>
<path fill-rule="evenodd" clip-rule="evenodd" d="M25.6498 19.6024C25.6498 18.6706 24.8928 17.9149 23.9585 17.9149C23.0246 17.9149 22.2676 18.6706 22.2676 19.6024C22.2676 20.5342 23.0246 21.2894 23.9585 21.2894C24.8928 21.2894 25.6498 20.5342 25.6498 19.6024Z" fill="#181A1D"/>
<path fill-rule="evenodd" clip-rule="evenodd" d="M21.5705 6.59891C22.0928 6.98297 22.8284 6.87209 23.2134 6.351C23.5983 5.8299 23.4872 5.09593 22.9649 4.71187C22.4426 4.32781 21.707 4.43868 21.322 4.95978C20.9371 5.48087 21.0482 6.21485 21.5705 6.59891Z" fill="#181A1D"/>
<path fill-rule="evenodd" clip-rule="evenodd" d="M19.3638 31.5539L18.7126 32.77L12.8119 37.0448L11.3717 37.3011C13.4173 34.6987 16.1808 32.6844 19.3638 31.5539ZM25.077 36.1134V40.9984L21.885 43.3121L18.6917 45.6258L14.0365 44.1171L13.6831 40.6539L13.3315 37.1995L18.702 33.3075L21.885 34.7076L25.077 36.1134ZM29.2388 53.7749L32.1147 57.7259L30.3603 60.735L28.6125 63.7325H21.9708L20.2235 60.735L18.4686 57.7259L21.3458 53.7749H29.2388ZM25.5081 36.1134L28.6996 34.7076L31.88 33.3075L37.2518 37.2142L36.9002 40.6539L36.5473 44.1171L31.8916 45.6258L28.6996 43.3121L25.5081 40.9984V36.1134ZM39.2116 37.3011L37.7363 37.0372L31.8756 32.7757L31.2195 31.5539C34.4039 32.6844 37.166 34.6987 39.2116 37.3011ZM39.2783 56.0061L35.8739 56.7387L32.4632 57.474L29.5864 53.523L30.8061 49.7786L32.0245 46.0338L36.6802 44.5251L39.0067 47.1199L41.3354 49.7165L39.2783 56.0061ZM42.9676 48.355C42.9294 52.0156 41.7755 55.4096 39.8277 58.212L39.5841 56.4527L41.8555 49.509L42.9676 48.355ZM25.2921 65.8102C23.4288 65.8102 21.6312 65.5215 19.9443 64.988L21.6517 64.1627H28.9334L30.6408 64.988C28.9526 65.5215 27.1568 65.8102 25.2921 65.8102ZM14.7099 56.7387L11.3055 56.0047L9.24613 49.7196L11.5771 47.1199L13.9031 44.5251L18.5588 46.0338L19.779 49.7786L20.9987 53.523L18.1219 57.474L14.7099 56.7387ZM10.7574 58.212C8.80919 55.4096 7.65393 52.0156 7.61704 48.355L8.72207 49.5028L10.9997 56.4571L10.7574 58.212ZM6.78271 48.1736C6.78271 58.373 15.07 66.64 25.2921 66.64C35.5147 66.64 43.8006 58.373 43.8006 48.1736C43.8006 37.9747 35.5147 29.7059 25.2921 29.7059C15.07 29.7059 6.78271 37.9747 6.78271 48.1736Z" fill="#181A1D"/>
</svg>
